<svg xmlns="http://www.w3.org/2000/svg" version="1.1" xmlns:xlink="http://www.w3.org/1999/xlink" xmlns:svgjs="http://svgjs.com/svgjs" width="1000" height="600" preserveAspectRatio="none" viewBox="0 0 1000 600"><g mask="url(&quot;#SvgjsMask1124&quot;)" fill="none"><path d="M471.41 116.61000000000001 L482.72 70.97L509.9930547306795 126.71805473067943z" fill="rgba(127, 90, 240, 1)"></path><path d="M497.65 431.36a5.6 5.6 0 1 0-10.51 3.88 5.6 5.6 0 1 0 10.51-3.88zM482.64 436.9a5.6 5.6 0 1 0-10.51 3.88 5.6 5.6 0 1 0 10.51-3.88zM467.63 442.44a5.6 5.6 0 1 0-10.51 3.88 5.6 5.6 0 1 0 10.51-3.88zM452.62 447.98a5.6 5.6 0 1 0-10.51 3.88 5.6 5.6 0 1 0 10.51-3.88zM522.13 405.27a5.6 5.6 0 1 0-10.51 3.88 5.6 5.6 0 1 0 10.51-3.88zM507.12 410.81a5.6 5.6 0 1 0-10.51 3.88 5.6 5.6 0 1 0 10.51-3.88zM492.11 416.35a5.6 5.6 0 1 0-10.51 3.88 5.6 5.6 0 1 0 10.51-3.88zM477.1 421.89a5.6 5.6 0 1 0-10.51 3.88 5.6 5.6 0 1 0 10.51-3.88zM546.61 379.18a5.6 5.6 0 1 0-10.51 3.88 5.6 5.6 0 1 0 10.51-3.88zM531.6 384.72a5.6 5.6 0 1 0-10.51 3.88 5.6 5.6 0 1 0 10.51-3.88zM516.59 390.26a5.6 5.6 0 1 0-10.51 3.88 5.6 5.6 0 1 0 10.51-3.88zM501.58 395.8a5.6 5.6 0 1 0-10.51 3.88 5.6 5.6 0 1 0 10.51-3.88z" stroke="rgba(127, 90, 240, 1)" stroke-width="1"></path><circle r="86.08627012351904" cx="354.91" cy="158.72" stroke="rgba(127, 90, 240, 1)" stroke-width="1" stroke-dasharray="4, 4"></circle><rect width="254.28" height="254.28" clip-path="url(&quot;#SvgjsClipPath1125&quot;)" x="701.33" y="158.01" fill="url(#SvgjsPattern1126)" transform="rotate(22.67, 828.47, 285.15)"></rect><path d="M864.0699999999999 555.73 L909.28 522.49L924.4461042469244 576.8811042469245z" stroke="rgba(127, 90, 240, 1)" stroke-width="1" stroke-dasharray="3, 2"></path><circle r="50" cx="524.38" cy="53.56" stroke="rgba(127, 90, 240, 1)" stroke-width="2.69" stroke-dasharray="4, 4"></circle><rect width="60" height="60" clip-path="url(&quot;#SvgjsClipPath1127&quot;)" x="25.05" y="-0.69" fill="url(#SvgjsPattern1128)" transform="rotate(205.44, 55.05, 29.31)"></rect><rect width="353.36" height="353.36" clip-path="url(&quot;#SvgjsClipPath1129&quot;)" x="631.55" y="25.08" fill="url(#SvgjsPattern1130)" transform="rotate(67.57, 808.23, 201.76)"></rect></g><defs><mask id="SvgjsMask1124"><rect width="1000" height="600" fill="#ffffff"></rect></mask><pattern x="0" y="0" width="254.28" height="9.78" patternUnits="userSpaceOnUse" id="SvgjsPattern1126"><rect width="254.28" height="4.89" x="0" y="0" fill="rgba(127, 90, 240, 1)"></rect><rect width="254.28" height="4.89" x="0" y="4.89" fill="rgba(0, 0, 0, 0)"></rect></pattern><clipPath id="SvgjsClipPath1125"><circle r="63.57" cx="828.47" cy="285.15"></circle></clipPath><pattern x="0" y="0" width="60" height="6" patternUnits="userSpaceOnUse" id="SvgjsPattern1128"><rect width="60" height="3" x="0" y="0" fill="rgba(127, 90, 240, 1)"></rect><rect width="60" height="3" x="0" y="3" fill="rgba(0, 0, 0, 0)"></rect></pattern><clipPath id="SvgjsClipPath1127"><circle r="15" cx="55.05" cy="29.31"></circle></clipPath><pattern x="0" y="0" width="353.36" height="12.62" patternUnits="userSpaceOnUse" id="SvgjsPattern1130"><rect width="353.36" height="6.31" x="0" y="0" fill="rgba(127, 90, 240, 1)"></rect><rect width="353.36" height="6.31" x="0" y="6.31" fill="rgba(0, 0, 0, 0)"></rect></pattern><clipPath id="SvgjsClipPath1129"><circle r="88.34" cx="808.23" cy="201.76"></circle></clipPath></defs></svg>