<svg xmlns="http://www.w3.org/2000/svg" version="1.1" xmlns:xlink="http://www.w3.org/1999/xlink" xmlns:svgjs="http://svgjs.dev/svgjs" width="1440" height="600" preserveAspectRatio="none" viewBox="0 0 1440 600"><g mask="url(&quot;#SvgjsMask1041&quot;)" fill="none"><path d="M941.01 244.05 a30.56 30.56 0 1 0 61.12 0 a30.56 30.56 0 1 0 -61.12 0z" stroke="rgba(255, 255, 254, 1)"></path><path d="M742.35 214.18L755.71 214.18L755.71 227.54L742.35 227.54z" fill="rgba(255, 255, 254, 1)"></path><path d="M86.33 152.87 a9.01 9.01 0 1 0 18.02 0 a9.01 9.01 0 1 0 -18.02 0z" stroke="rgba(127, 90, 240, 1)"></path><path d="M1265.57 295.52a11.78 11.78 0 1 0 2.13 23.46z" fill="rgba(127, 90, 240, 1)"></path><path d="M1033.52 229.68a25.46 25.46 0 1 0-25.82-43.89z" fill="rgba(127, 90, 240, 1)"></path><path d="M1403.52 416.53L1446.02 416.53L1446.02 421.12L1403.52 421.12z" fill="rgba(255, 255, 254, 1)"></path><path d="M263.09 508.65L277.45 508.65L277.45 523.01L263.09 523.01z" fill="rgba(255, 255, 254, 1)"></path><path d="M192.77 311.86a39.32 39.32 0 1 0-7.34-78.3z" stroke="rgba(255, 255, 254, 1)"></path><path d="M1436.97 376.11L1490.71 376.11L1490.71 391L1436.97 391z" stroke="rgba(127, 90, 240, 1)"></path><path d="M315.27 407.64L369.71 407.64L369.71 462.08L315.27 462.08z" stroke="rgba(127, 90, 240, 1)"></path><path d="M76.4 273.2a33.45 33.45 0 1 0 55.57 37.25z" fill="rgba(255, 255, 254, 1)"></path><path d="M786.07 103.59L836.34 103.59L836.34 118.02L786.07 118.02z" stroke="rgba(255, 255, 254, 1)"></path><path d="M407.59 251.33L442.49 251.33L442.49 281.38L407.59 281.38z" stroke="rgba(255, 255, 254, 1)"></path><path d="M512.39 408.64a46.97 46.97 0 1 0-51.49-78.56z" stroke="rgba(255, 255, 254, 1)"></path><path d="M381.3 92.94L419.42 92.94L419.42 131.06L381.3 131.06z" fill="rgba(255, 255, 254, 1)"></path><path d="M187.54 574.44L208.54 574.44L208.54 623.15L187.54 623.15z" fill="rgba(127, 90, 240, 1)"></path><path d="M525.69 190.21L564.67 190.21L564.67 213.23L525.69 213.23z" stroke="rgba(127, 90, 240, 1)"></path><path d="M125.35 402.14 a39.49 39.49 0 1 0 78.98 0 a39.49 39.49 0 1 0 -78.98 0z" stroke="rgba(127, 90, 240, 1)"></path><path d="M558.95 398.35L579.4 398.35L579.4 422.15L558.95 422.15z" fill="rgba(127, 90, 240, 1)"></path><path d="M-17.74 467.1a41.91 41.91 0 1 0 83.64 5.48z" stroke="rgba(127, 90, 240, 1)"></path><path d="M1403.61 253.41a49.2 49.2 0 1 0 67.46-71.63z" fill="rgba(255, 255, 254, 1)"></path><path d="M1084.61 105.65L1094.96 105.65L1094.96 146.91L1084.61 146.91z" fill="rgba(255, 255, 254, 1)"></path><path d="M1114.36 342.36 a45.23 45.23 0 1 0 90.46 0 a45.23 45.23 0 1 0 -90.46 0z" fill="rgba(127, 90, 240, 1)"></path><path d="M922.55 385.09 a18.24 18.24 0 1 0 36.48 0 a18.24 18.24 0 1 0 -36.48 0z" stroke="rgba(127, 90, 240, 1)"></path><path d="M769.2 571.29L823.37 571.29L823.37 625.46L769.2 625.46z" fill="rgba(127, 90, 240, 1)"></path><path d="M789.03 346.31a10.23 10.23 0 1 0 2.45 20.32z" fill="rgba(255, 255, 254, 1)"></path><path d="M1177.78 167.35L1222.24 167.35L1222.24 191.31L1177.78 191.31z" fill="rgba(255, 255, 254, 1)"></path><path d="M1334.16 445.85L1366.44 445.85L1366.44 452.16L1334.16 452.16z" stroke="rgba(127, 90, 240, 1)"></path><path d="M410.89 411.62L426.55 411.62L426.55 465.34L410.89 465.34z" fill="rgba(255, 255, 254, 1)"></path><path d="M344.39 106.4 a36.79 36.79 0 1 0 73.58 0 a36.79 36.79 0 1 0 -73.58 0z" stroke="rgba(255, 255, 254, 1)"></path></g><defs><mask id="SvgjsMask1041"><rect width="1440" height="600" fill="#ffffff"></rect></mask></defs></svg>