<svg xmlns="http://www.w3.org/2000/svg" version="1.1" xmlns:xlink="http://www.w3.org/1999/xlink" xmlns:svgjs="http://svgjs.dev/svgjs" width="1440" height="600" preserveAspectRatio="none" viewBox="0 0 1440 600"><g mask="url(&quot;#SvgjsMask1065&quot;)" fill="none"><rect width="1440" height="600" x="0" y="0" fill="rgba(22, 22, 26, 1)"></rect><path d="M -252.8063488745853,178 C -156.81,243.6 35.19,507.6 227.1936511254147,506 C 419.19,504.4 515.19,172.2 707.1936511254147,170 C 899.19,167.8 995.19,489.8 1187.1936511254148,495 C 1379.19,500.2 1616.63,193.8 1667.1936511254148,196 C 1717.75,198.2 1485.44,444 1440,506" stroke="rgba(127, 90, 240, 1)" stroke-width="2"></path><path d="M -537.2224975313276,512 C -441.22,460 -249.22,263.2 -57.222497531327576,252 C 134.78,240.8 230.78,488.6 422.7775024686724,456 C 614.78,423.4 710.78,78 902.7775024686724,89 C 1094.78,100 1275.33,479.4 1382.7775024686725,511 C 1490.22,542.6 1428.56,299.8 1440,247" stroke="rgba(127, 90, 240, 1)" stroke-width="2"></path><path d="M -210.98955382648273,289 C -114.99,295 77.01,343.6 269.01044617351727,319 C 461.01,294.4 557.01,165.2 749.0104461735173,166 C 941.01,166.8 1037.01,302.4 1229.0104461735173,323 C 1421.01,343.6 1666.81,256.4 1709.0104461735173,269 C 1751.21,281.6 1493.8,362.6 1440,386" stroke="rgba(127, 90, 240, 1)" stroke-width="2"></path><path d="M -904.1012811787815,510 C -808.1,445.4 -616.1,228.2 -424.1012811787815,187 C -232.1,145.8 -136.1,307.2 55.898718821218495,304 C 247.9,300.8 343.9,138 535.8987188212185,171 C 727.9,204 835.08,462.8 1015.8987188212185,469 C 1196.72,475.2 1355.18,255.4 1440,202" stroke="rgba(127, 90, 240, 1)" stroke-width="2"></path><path d="M -37.44193693333608,161 C 58.56,190.8 250.56,286.8 442.5580630666639,310 C 634.56,333.2 730.56,270.6 922.5580630666639,277 C 1114.56,283.4 1210.56,368.8 1402.5580630666639,342 C 1594.56,315.2 1875.07,117.6 1882.5580630666639,143 C 1890.05,168.4 1528.51,403.8 1440,469" stroke="rgba(127, 90, 240, 1)" stroke-width="2"></path><path d="M -500.4867330640395,531 C -404.49,468.6 -212.49,243.2 -20.48673306403952,219 C 171.51,194.8 267.51,419.8 459.5132669359605,410 C 651.51,400.2 747.51,181.4 939.5132669359605,170 C 1131.51,158.6 1319.42,361.8 1419.5132669359605,353 C 1519.61,344.2 1435.9,171.4 1440,126" stroke="rgba(127, 90, 240, 1)" stroke-width="2"></path></g><defs><mask id="SvgjsMask1065"><rect width="1440" height="600" fill="#ffffff"></rect></mask></defs></svg>